<?xml version="1.0" standalone="no"?><!DOCTYPE svg PUBLIC "-//W3C//DTD SVG 1.1//EN" "http://www.w3.org/Graphics/SVG/1.1/DTD/svg11.dtd"><svg t="1627527937739" class="icon" viewBox="0 0 1024 1024" version="1.1" xmlns="http://www.w3.org/2000/svg" p-id="1292" width="200" height="200" xmlns:xlink="http://www.w3.org/1999/xlink"><defs><style type="text/css">@font-face { font-family: feedback-iconfont; src: url("//at.alicdn.com/t/font_1031158_1uhr8ri0pk5.eot?#iefix") format("embedded-opentype"), url("//at.alicdn.com/t/font_1031158_1uhr8ri0pk5.woff2") format("woff2"), url("//at.alicdn.com/t/font_1031158_1uhr8ri0pk5.woff") format("woff"), url("//at.alicdn.com/t/font_1031158_1uhr8ri0pk5.ttf") format("truetype"), url("//at.alicdn.com/t/font_1031158_1uhr8ri0pk5.svg#iconfont") format("svg"); }
</style></defs><path d="M796.444444 0H227.555556A227.555556 227.555556 0 0 0 0 227.555556v568.888888a227.555556 227.555556 0 0 0 227.555556 227.555556h568.888888a227.555556 227.555556 0 0 0 227.555556-227.555556V227.555556a227.555556 227.555556 0 0 0-227.555556-227.555556z m38.968889 476.615111A128.284444 128.284444 0 0 1 717.824 551.822222h-411.875556a13.937778 13.937778 0 0 0-13.824 15.303111l95.175112 157.070223a57.856 57.856 0 1 1-98.929778 59.960888l-102.001778-168.334222-1.934222-5.176889a129.592889 129.592889 0 0 1 121.514666-174.535111h411.875556a13.937778 13.937778 0 0 0 11.377778-22.186666l-98.474667-104.504889a57.856 57.856 0 0 1 84.252445-79.246223l101.603555 108.088889a128.341333 128.341333 0 0 1 18.830222 138.353778z" fill="#13227a" p-id="1293"></path></svg>